<svg width="250" height="69" viewBox="0 0 250 69" fill="none" xmlns="http://www.w3.org/2000/svg">
<path d="M30.1 69C11.1 69 0.3 55.8 0.3 34.5C0.3 13.6 12.3 -7.15256e-07 32.2 -7.15256e-07C50.1 -7.15256e-07 61 9.59999 61 25V25.7H49.6V25C49.6 14.9 44.5 10.4 31.7 10.4C17.6 10.4 11.8 17.1 11.8 34.5C11.8 51.9 17.8 58.6 32.6 58.6C44.9 58.6 50.7 55 50.7 44.5V42.9H29.8V33.6H61.1V68H51.2V57.5H50.8C48.3 63.6 41.3 69 30.1 69ZM91.0289 69C74.6289 69 66.9289 58.6 66.9289 43.1C66.9289 27.7 76.1289 17.3 90.9289 17.3C104.329 17.3 113.729 25.3 113.729 38.9C113.729 41.5 113.429 44.2 113.129 45.7H77.0289C77.4289 54.8 80.7289 59.4 91.1289 59.4C99.4289 59.4 102.629 56.6 102.629 52.1V51.3H113.329V52.2C113.329 62.4 104.429 69 91.0289 69ZM90.7289 26.4C81.3289 26.4 77.7289 30.8 77.1289 38.5H103.429C103.829 30 99.2289 26.4 90.7289 26.4ZM130.147 68H119.347V18.3H129.247V27.6H129.647C131.947 22.3 137.247 17.3 146.947 17.3C159.847 17.3 165.647 25.5 165.647 36.8V68H154.847V39.2C154.847 30.3 152.047 26.6 142.947 26.6C134.147 26.6 130.147 30 130.147 39.3V68ZM201.588 69C183.388 69 173.088 58.9 173.088 41.8V0.999998H183.788V41.8C183.788 53.9 188.388 58.6 201.588 58.6C214.688 58.6 219.288 53.9 219.288 41.8V0.999998H230.088V41.8C230.088 58.9 219.688 69 201.588 69ZM249.056 68H238.256V0.999998H249.056V68Z" fill="#8674FE"/>
</svg>
